<svg xmlns="http://www.w3.org/2000/svg" viewBox="0 0 120 120" width="120" height="120">
  <!-- Background circle -->
  <circle cx="60" cy="60" r="58" fill="#F5C342" stroke="#0A0A0A" stroke-width="2"/>
  <!-- Body/shirt -->
  <rect x="28" y="78" width="64" height="40" rx="8" fill="#1a1a2e"/>
  <!-- Comic book graphic on shirt (lightning bolt) -->
  <polygon points="52,85 62,95 56,95 66,108 50,96 57,96" fill="#F5C342"/>
  <!-- Neck -->
  <rect x="50" y="70" width="20" height="14" rx="4" fill="#D4956A"/>
  <!-- Head -->
  <ellipse cx="60" cy="52" rx="26" ry="28" fill="#D4956A"/>
  <!-- Hair -->
  <ellipse cx="60" cy="26" rx="26" ry="12" fill="#3D2B1F"/>
  <rect x="34" y="26" width="52" height="8" rx="4" fill="#3D2B1F"/>
  <!-- Beard -->
  <ellipse cx="60" cy="68" rx="20" ry="12" fill="#4A3728"/>
  <ellipse cx="60" cy="64" rx="16" ry="8" fill="#D4956A"/>
  <!-- Eyes -->
  <circle cx="50" cy="50" r="4" fill="#2C1810"/>
  <circle cx="70" cy="50" r="4" fill="#2C1810"/>
  <circle cx="51.5" cy="48.5" r="1.5" fill="white"/>
  <circle cx="71.5" cy="48.5" r="1.5" fill="white"/>
  <!-- Eyebrows -->
  <path d="M44 44 Q50 41 56 44" stroke="#3D2B1F" stroke-width="2.5" fill="none" stroke-linecap="round"/>
  <path d="M64 44 Q70 41 76 44" stroke="#3D2B1F" stroke-width="2.5" fill="none" stroke-linecap="round"/>
  <!-- Smile (friendly) -->
  <path d="M50 62 Q60 70 70 62" stroke="#3D2B1F" stroke-width="2" fill="none" stroke-linecap="round"/>
  <!-- Glasses -->
  <circle cx="50" cy="50" r="7" fill="none" stroke="#0A0A0A" stroke-width="2"/>
  <circle cx="70" cy="50" r="7" fill="none" stroke="#0A0A0A" stroke-width="2"/>
  <line x1="57" y1="50" x2="63" y2="50" stroke="#0A0A0A" stroke-width="2"/>
  <line x1="34" y1="49" x2="43" y2="50" stroke="#0A0A0A" stroke-width="2"/>
  <line x1="77" y1="50" x2="84" y2="49" stroke="#0A0A0A" stroke-width="2"/>
</svg>
